<svg xmlns="http://www.w3.org/2000/svg" viewBox="0 0 1400 1050" role="img" aria-labelledby="title desc">
  <title id="title">Verdantia editorial workspace visual</title>
  <desc id="desc">An abstract warm ivory workspace with layered paper, pathway lines, and evergreen training materials.</desc>
  <defs>
    <linearGradient id="paper" x1="0" y1="0" x2="1" y2="1">
      <stop offset="0" stop-color="#fffdf8"/>
      <stop offset="0.55" stop-color="#f6f1e8"/>
      <stop offset="1" stop-color="#dde7d8"/>
    </linearGradient>
    <linearGradient id="green" x1="0" y1="0" x2="1" y2="1">
      <stop offset="0" stop-color="#173b2f"/>
      <stop offset="1" stop-color="#0e3d2f"/>
    </linearGradient>
    <filter id="softShadow" x="-20%" y="-20%" width="140%" height="140%">
      <feDropShadow dx="0" dy="24" stdDeviation="34" flood-color="#102e24" flood-opacity="0.16"/>
    </filter>
    <pattern id="pin" width="30" height="30" patternUnits="userSpaceOnUse">
      <circle cx="2" cy="2" r="1.2" fill="#173b2f" opacity="0.16"/>
    </pattern>
  </defs>
  <rect width="1400" height="1050" fill="#f6f1e8"/>
  <rect width="1400" height="1050" fill="url(#pin)" opacity="0.42"/>
  <path d="M-90 780C168 633 342 617 569 716c259 114 465 75 614-73 92-91 185-141 310-127" fill="none" stroke="#a8bfa3" stroke-width="84" opacity="0.22"/>
  <path d="M-12 829C222 680 418 678 617 746c257 88 417 26 576-134 90-91 176-126 268-114" fill="none" stroke="#c4a35a" stroke-width="5" opacity="0.72"/>
  <g filter="url(#softShadow)">
    <rect x="148" y="155" width="574" height="692" rx="10" fill="url(#paper)" transform="rotate(-4 435 501)"/>
    <rect x="227" y="224" width="500" height="70" rx="8" fill="#173b2f" opacity="0.92" transform="rotate(-4 477 259)"/>
    <rect x="236" y="343" width="318" height="34" rx="17" fill="#a8bfa3" opacity="0.72" transform="rotate(-4 395 360)"/>
    <rect x="237" y="413" width="414" height="20" rx="10" fill="#173b2f" opacity="0.16" transform="rotate(-4 444 423)"/>
    <rect x="237" y="459" width="363" height="20" rx="10" fill="#173b2f" opacity="0.13" transform="rotate(-4 419 469)"/>
    <rect x="237" y="505" width="391" height="20" rx="10" fill="#173b2f" opacity="0.13" transform="rotate(-4 433 515)"/>
  </g>
  <g filter="url(#softShadow)">
    <rect x="736" y="238" width="454" height="456" rx="10" fill="#fffdf8"/>
    <rect x="786" y="300" width="202" height="160" rx="8" fill="#dde7d8"/>
    <rect x="1018" y="300" width="122" height="160" rx="8" fill="url(#green)"/>
    <path d="M805 568c88-77 202-77 290 0" fill="none" stroke="#173b2f" stroke-width="5" stroke-linecap="round"/>
    <path d="M789 608c116-115 235-115 351 0" fill="none" stroke="#c4a35a" stroke-width="5" stroke-linecap="round"/>
    <circle cx="805" cy="568" r="7" fill="#c4a35a"/>
    <circle cx="1095" cy="568" r="7" fill="#c4a35a"/>
  </g>
  <g opacity="0.9">
    <path d="M855 885C906 721 980 567 1144 444c-122 9-229 126-289 275-60-149-167-266-289-275 164 123 238 277 289 441Z" fill="#0e3d2f" opacity="0.82"/>
    <path d="M614 746c121-105 358-105 479 0" fill="none" stroke="#c4a35a" stroke-width="21" stroke-linecap="round"/>
  </g>
</svg>
