<svg xmlns="http://www.w3.org/2000/svg" width="1600" height="1200" viewBox="0 0 1600 1200" role="img" aria-label="Abstract Verdantia editorial workbench with pathway and bridge forms">
  <defs>
    <linearGradient id="paper" x1="0" x2="1" y1="0" y2="1">
      <stop offset="0" stop-color="#fffdf8"/>
      <stop offset="0.55" stop-color="#f6f1e8"/>
      <stop offset="1" stop-color="#dde7d8"/>
    </linearGradient>
    <linearGradient id="evergreen" x1="0" x2="1" y1="0" y2="1">
      <stop offset="0" stop-color="#173b2f"/>
      <stop offset="1" stop-color="#0e3d2f"/>
    </linearGradient>
    <linearGradient id="sage" x1="0" x2="1" y1="0" y2="1">
      <stop offset="0" stop-color="#dde7d8"/>
      <stop offset="1" stop-color="#6b8f7a"/>
    </linearGradient>
    <filter id="softShadow" x="-20%" y="-20%" width="140%" height="140%">
      <feDropShadow dx="0" dy="28" stdDeviation="30" flood-color="#102e24" flood-opacity="0.15"/>
    </filter>
    <filter id="paperGrain">
      <feTurbulence baseFrequency="0.75" numOctaves="3" seed="17" type="fractalNoise"/>
      <feColorMatrix type="saturate" values="0"/>
      <feComponentTransfer>
        <feFuncA type="table" tableValues="0 0.08"/>
      </feComponentTransfer>
    </filter>
  </defs>

  <rect width="1600" height="1200" fill="#f6f1e8"/>
  <rect width="1600" height="1200" fill="url(#paperGrain)" opacity="0.55"/>
  <path d="M0 889C227 760 413 748 604 854c207 115 407 84 633-92 134-104 238-149 363-159v597H0Z" fill="#dde7d8" opacity="0.72"/>
  <path d="M0 1012c276-132 502-124 678 24 180 151 389 156 626 21 105-60 204-96 296-111v254H0Z" fill="#0e3d2f" opacity="0.95"/>
  <path d="M104 877C279 552 561 459 784 631c212 164 417 87 690-221" fill="none" stroke="#c9a35a" stroke-width="7" stroke-linecap="round" opacity="0.88"/>
  <path d="M224 884c251-226 748-226 1000 0" fill="none" stroke="#fffdf8" stroke-width="4" stroke-linecap="round" opacity="0.72"/>

  <g filter="url(#softShadow)">
    <rect x="154" y="164" width="486" height="560" rx="32" fill="#fffdf8" opacity="0.96" transform="rotate(-5 397 444)"/>
    <rect x="218" y="221" width="315" height="19" rx="9.5" fill="#173b2f" opacity="0.32" transform="rotate(-5 376 230)"/>
    <rect x="220" y="284" width="354" height="13" rx="6.5" fill="#6b8f7a" opacity="0.34" transform="rotate(-5 397 290)"/>
    <rect x="224" y="329" width="275" height="13" rx="6.5" fill="#6b8f7a" opacity="0.28" transform="rotate(-5 362 335)"/>
    <rect x="234" y="409" width="286" height="156" rx="22" fill="#dde7d8" opacity="0.84" transform="rotate(-5 377 487)"/>
    <path d="M276 532c49-74 131-83 207-23" fill="none" stroke="#173b2f" stroke-width="4" stroke-linecap="round" opacity="0.48"/>
  </g>

  <g filter="url(#softShadow)">
    <rect x="735" y="126" width="586" height="388" rx="34" fill="#173b2f" opacity="0.96" transform="rotate(4 1028 320)"/>
    <path d="M850 418C924 270 1043 240 1138 324c74 65 122 56 213-34" fill="none" stroke="#c9a35a" stroke-width="6" stroke-linecap="round" opacity="0.88"/>
    <path d="M821 220h238" stroke="#fffdf8" stroke-width="13" stroke-linecap="round" opacity="0.24"/>
    <path d="M821 276h328" stroke="#fffdf8" stroke-width="9" stroke-linecap="round" opacity="0.18"/>
    <path d="M821 324h280" stroke="#fffdf8" stroke-width="9" stroke-linecap="round" opacity="0.14"/>
    <circle cx="1208" cy="228" r="72" fill="#f6f1e8" opacity="0.12"/>
  </g>

  <g filter="url(#softShadow)">
    <rect x="528" y="590" width="486" height="258" rx="30" fill="#fffdf8" opacity="0.95" transform="rotate(2 771 719)"/>
    <rect x="580" y="654" width="150" height="150" rx="24" fill="url(#sage)" opacity="0.78" transform="rotate(2 655 729)"/>
    <rect x="768" y="665" width="170" height="20" rx="10" fill="#173b2f" opacity="0.28" transform="rotate(2 853 675)"/>
    <rect x="768" y="720" width="126" height="14" rx="7" fill="#6b8f7a" opacity="0.28" transform="rotate(2 831 727)"/>
    <rect x="768" y="762" width="184" height="14" rx="7" fill="#6b8f7a" opacity="0.2" transform="rotate(2 860 769)"/>
  </g>

  <g opacity="0.65">
    <path d="M1222 719c58-90 120-131 184-123-82 76-122 142-121 205-21-29-42-56-63-82Z" fill="#173b2f" opacity="0.46"/>
    <path d="M1305 823c78-58 146-68 206-30-88 28-151 76-190 144-5-38-10-76-16-114Z" fill="#6b8f7a" opacity="0.42"/>
    <path d="M1195 780c27-88 78-143 151-164-49 82-73 157-72 225-28-20-55-40-79-61Z" fill="#dde7d8" opacity="0.7"/>
  </g>

  <g fill="none" stroke-linecap="round">
    <path d="M117 1050C272 928 472 925 624 1041" stroke="#c9a35a" stroke-width="3" opacity="0.9"/>
    <path d="M940 1006c128-91 296-91 425 0" stroke="#dde7d8" stroke-width="3" opacity="0.82"/>
    <path d="M100 934h322" stroke="#102e24" stroke-width="2" opacity="0.28"/>
    <path d="M1145 889h284" stroke="#fffdf8" stroke-width="2" opacity="0.42"/>
  </g>

  <g fill="#173b2f" opacity="0.42">
    <circle cx="186" cy="934" r="10"/>
    <circle cx="421" cy="934" r="10"/>
    <circle cx="1034" cy="1002" r="8"/>
    <circle cx="1276" cy="1002" r="8"/>
  </g>
</svg>
