<svg xmlns="http://www.w3.org/2000/svg" width="900" height="1180" aria-labelledby="title desc" role="img" viewBox="0 0 900 1180"><title id="title">Verdantia paper adoption artifact</title><desc id="desc">A tactile editorial worksheet showing route lines, cards, check marks, and workflow lanes for AI adoption.</desc><defs><filter id="paperNoise" width="140%" height="140%" x="-20%" y="-20%"><feTurbulence baseFrequency=".018" numOctaves="4" result="noise" seed="27" type="fractalNoise"/><feColorMatrix in="noise" type="saturate" values="0"/><feComponentTransfer><feFuncA tableValues="0 0.18" type="table"/></feComponentTransfer><feBlend in="SourceGraphic" mode="multiply"/></filter><linearGradient id="paper" x1="0" x2="1" y1="0" y2="1"><stop offset="0" stop-color="#fffdf8"/><stop offset=".52" stop-color="#f6f1e8"/><stop offset="1" stop-color="#eadfce"/></linearGradient><linearGradient id="ink" x1="0" x2="1"><stop offset="0" stop-color="#0e3d2f"/><stop offset="1" stop-color="#6b8f7a"/></linearGradient><pattern id="grid" width="44" height="44" patternUnits="userSpaceOnUse"><path fill="none" stroke="#0e3d2f" stroke-opacity=".08" d="M44 0H0v44"/></pattern></defs><rect width="900" height="1180" fill="url(#paper)" filter="url(#paperNoise)" rx="34"/><rect width="816" height="1092" x="42" y="44" fill="url(#grid)" opacity=".75" rx="22"/><path fill="none" stroke="#c9a35a" stroke-dasharray="12 18" stroke-linecap="round" stroke-width="4" d="M118 244C228 118 376 105 504 210c126 104 212 54 294-74"/><path fill="none" stroke="#0e3d2f" stroke-linecap="round" stroke-opacity=".42" stroke-width="5" d="M122 780c164-170 514-176 656-4"/><path fill="none" stroke="#6b8f7a" stroke-linecap="round" stroke-width="4" d="M206 740c108-82 272-84 384-4"/><g fill="#0e3d2f" opacity=".08"><circle cx="186" cy="196" r="82"/><circle cx="726" cy="864" r="132"/></g><g><text x="0" y="0" fill="#0e3d2f" font-family="Georgia, serif" font-size="66" font-weight="700" letter-spacing="-2" transform="translate(92 102)">AI adoption canvas</text><text x="0" y="48" fill="#66736b" font-family="Aptos, Segoe UI, sans-serif" font-size="22" font-weight="700" letter-spacing="4" transform="translate(92 102)">FIELD GUIDE / WORKSHOP ARTIFACT</text></g><g transform="translate(92 338)"><rect width="318" height="164" fill="#fffdf8" stroke="#0e3d2f" stroke-opacity=".18" rx="24"/><text x="28" y="48" fill="#c9a35a" font-family="Aptos, Segoe UI, sans-serif" font-size="18" font-weight="800" letter-spacing="3">01 MAP</text><text x="28" y="91" fill="#0e3d2f" font-family="Georgia, serif" font-size="38" font-weight="700">Current work</text><path stroke="#0e3d2f" stroke-linecap="round" stroke-opacity=".18" stroke-width="4" d="M30 124h244M30 144h196"/></g><g transform="translate(488 340)"><rect width="318" height="164" fill="#0e3d2f" opacity=".94" rx="24"/><text x="28" y="48" fill="#c9a35a" font-family="Aptos, Segoe UI, sans-serif" font-size="18" font-weight="800" letter-spacing="3">02 TRAIN</text><text x="28" y="91" fill="#fffdf8" font-family="Georgia, serif" font-size="38" font-weight="700">Safe practice</text><path stroke="#fffdf8" stroke-linecap="round" stroke-opacity=".2" stroke-width="4" d="M30 124h244M30 144h196"/></g><g transform="translate(92 560)"><rect width="714" height="136" fill="#dde7d8" stroke="#0e3d2f" stroke-opacity=".16" opacity=".8" rx="24"/><text x="30" y="48" fill="#0e3d2f" font-family="Georgia, serif" font-size="36" font-weight="700">Reusable materials</text><g fill="none" stroke="#0e3d2f" stroke-linecap="round" stroke-linejoin="round" stroke-width="3" opacity=".72"><path d="M36 82l16 16 34-38"/><path d="M208 82l16 16 34-38"/><path d="M388 82l16 16 34-38"/><path d="M568 82l16 16 34-38"/></g><g fill="#0e3d2f" font-family="Aptos, Segoe UI, sans-serif" font-size="18" font-weight="700" opacity=".58"><text x="100" y="102">prompts</text><text x="272" y="102">review</text><text x="452" y="102">workflow</text><text x="632" y="102">rhythm</text></g></g><g fill="#fffdf8" stroke="#0e3d2f" stroke-opacity=".16" transform="translate(114 872)"><rect width="160" height="118" rx="18"/><rect width="160" height="118" x="184" y="-28" rx="18"/><rect width="160" height="118" x="368" y="0" rx="18"/><rect width="160" height="118" x="552" y="-34" rx="18"/></g><g fill="#0e3d2f" font-family="Aptos, Segoe UI, sans-serif" font-size="17" font-weight="800" letter-spacing="2" opacity=".78"><text x="148" y="936">DISCOVER</text><text x="326" y="908">PRACTISE</text><text x="514" y="936">CHECK</text><text x="690" y="902">REPEAT</text></g></svg>