<svg xmlns="http://www.w3.org/2000/svg" aria-labelledby="title desc" role="img" viewBox="0 0 1400 1050"><title id="title">Verdantia editorial workspace visual</title><desc id="desc">An abstract warm ivory workspace with layered paper, pathway lines, and evergreen training materials.</desc><defs><linearGradient id="paper" x1="0" x2="1" y1="0" y2="1"><stop offset="0" stop-color="#fffdf8"/><stop offset=".55" stop-color="#f6f1e8"/><stop offset="1" stop-color="#dde7d8"/></linearGradient><linearGradient id="green" x1="0" x2="1" y1="0" y2="1"><stop offset="0" stop-color="#173b2f"/><stop offset="1" stop-color="#0e3d2f"/></linearGradient><filter id="softShadow" width="140%" height="140%" x="-20%" y="-20%"><feDropShadow dx="0" dy="24" flood-color="#102e24" flood-opacity=".16" stdDeviation="34"/></filter><pattern id="pin" width="30" height="30" patternUnits="userSpaceOnUse"><circle cx="2" cy="2" r="1.2" fill="#173b2f" opacity=".16"/></pattern></defs><rect width="1400" height="1050" fill="#f6f1e8"/><rect width="1400" height="1050" fill="url(#pin)" opacity=".42"/><path fill="none" stroke="#a8bfa3" stroke-width="84" d="M-90 780C168 633 342 617 569 716c259 114 465 75 614-73 92-91 185-141 310-127" opacity=".22"/><path fill="none" stroke="#c4a35a" stroke-width="5" d="M-12 829C222 680 418 678 617 746c257 88 417 26 576-134 90-91 176-126 268-114" opacity=".72"/><g filter="url(#softShadow)"><rect width="574" height="692" x="148" y="155" fill="url(#paper)" rx="10" transform="rotate(-4 435 501)"/><rect width="500" height="70" x="227" y="224" fill="#173b2f" opacity=".92" rx="8" transform="rotate(-4 477 259)"/><rect width="318" height="34" x="236" y="343" fill="#a8bfa3" opacity=".72" rx="17" transform="rotate(-4 395 360)"/><rect width="414" height="20" x="237" y="413" fill="#173b2f" opacity=".16" rx="10" transform="rotate(-4 444 423)"/><rect width="363" height="20" x="237" y="459" fill="#173b2f" opacity=".13" rx="10" transform="rotate(-4 419 469)"/><rect width="391" height="20" x="237" y="505" fill="#173b2f" opacity=".13" rx="10" transform="rotate(-4 433 515)"/></g><g filter="url(#softShadow)"><rect width="454" height="456" x="736" y="238" fill="#fffdf8" rx="10"/><rect width="202" height="160" x="786" y="300" fill="#dde7d8" rx="8"/><rect width="122" height="160" x="1018" y="300" fill="url(#green)" rx="8"/><path fill="none" stroke="#173b2f" stroke-linecap="round" stroke-width="5" d="M805 568c88-77 202-77 290 0"/><path fill="none" stroke="#c4a35a" stroke-linecap="round" stroke-width="5" d="M789 608c116-115 235-115 351 0"/><circle cx="805" cy="568" r="7" fill="#c4a35a"/><circle cx="1095" cy="568" r="7" fill="#c4a35a"/></g><g opacity=".9"><path fill="#0e3d2f" d="M855 885C906 721 980 567 1144 444c-122 9-229 126-289 275-60-149-167-266-289-275 164 123 238 277 289 441Z" opacity=".82"/><path fill="none" stroke="#c4a35a" stroke-linecap="round" stroke-width="21" d="M614 746c121-105 358-105 479 0"/></g></svg>