<svg xmlns="http://www.w3.org/2000/svg" width="1600" height="1200" aria-label="Abstract Verdantia editorial workbench with pathway and bridge forms" role="img" viewBox="0 0 1600 1200"><defs><linearGradient id="paper" x1="0" x2="1" y1="0" y2="1"><stop offset="0" stop-color="#fffdf8"/><stop offset=".55" stop-color="#f6f1e8"/><stop offset="1" stop-color="#dde7d8"/></linearGradient><linearGradient id="evergreen" x1="0" x2="1" y1="0" y2="1"><stop offset="0" stop-color="#173b2f"/><stop offset="1" stop-color="#0e3d2f"/></linearGradient><linearGradient id="sage" x1="0" x2="1" y1="0" y2="1"><stop offset="0" stop-color="#dde7d8"/><stop offset="1" stop-color="#6b8f7a"/></linearGradient><filter id="softShadow" width="140%" height="140%" x="-20%" y="-20%"><feDropShadow dx="0" dy="28" flood-color="#102e24" flood-opacity=".15" stdDeviation="30"/></filter><filter id="paperGrain"><feTurbulence baseFrequency=".75" numOctaves="3" seed="17" type="fractalNoise"/><feColorMatrix type="saturate" values="0"/><feComponentTransfer><feFuncA tableValues="0 0.08" type="table"/></feComponentTransfer></filter></defs><rect width="1600" height="1200" fill="#f6f1e8"/><rect width="1600" height="1200" fill="url(#paperGrain)" opacity=".55"/><path fill="#dde7d8" d="M0 889C227 760 413 748 604 854c207 115 407 84 633-92 134-104 238-149 363-159v597H0Z" opacity=".72"/><path fill="#0e3d2f" d="M0 1012c276-132 502-124 678 24 180 151 389 156 626 21 105-60 204-96 296-111v254H0Z" opacity=".95"/><path fill="none" stroke="#c9a35a" stroke-linecap="round" stroke-width="7" d="M104 877C279 552 561 459 784 631c212 164 417 87 690-221" opacity=".88"/><path fill="none" stroke="#fffdf8" stroke-linecap="round" stroke-width="4" d="M224 884c251-226 748-226 1000 0" opacity=".72"/><g filter="url(#softShadow)"><rect width="486" height="560" x="154" y="164" fill="#fffdf8" opacity=".96" rx="32" transform="rotate(-5 397 444)"/><rect width="315" height="19" x="218" y="221" fill="#173b2f" opacity=".32" rx="9.5" transform="rotate(-5 376 230)"/><rect width="354" height="13" x="220" y="284" fill="#6b8f7a" opacity=".34" rx="6.5" transform="rotate(-5 397 290)"/><rect width="275" height="13" x="224" y="329" fill="#6b8f7a" opacity=".28" rx="6.5" transform="rotate(-5 362 335)"/><rect width="286" height="156" x="234" y="409" fill="#dde7d8" opacity=".84" rx="22" transform="rotate(-5 377 487)"/><path fill="none" stroke="#173b2f" stroke-linecap="round" stroke-width="4" d="M276 532c49-74 131-83 207-23" opacity=".48"/></g><g filter="url(#softShadow)"><rect width="586" height="388" x="735" y="126" fill="#173b2f" opacity=".96" rx="34" transform="rotate(4 1028 320)"/><path fill="none" stroke="#c9a35a" stroke-linecap="round" stroke-width="6" d="M850 418C924 270 1043 240 1138 324c74 65 122 56 213-34" opacity=".88"/><path stroke="#fffdf8" stroke-linecap="round" stroke-width="13" d="M821 220h238" opacity=".24"/><path stroke="#fffdf8" stroke-linecap="round" stroke-width="9" d="M821 276h328" opacity=".18"/><path stroke="#fffdf8" stroke-linecap="round" stroke-width="9" d="M821 324h280" opacity=".14"/><circle cx="1208" cy="228" r="72" fill="#f6f1e8" opacity=".12"/></g><g filter="url(#softShadow)"><rect width="486" height="258" x="528" y="590" fill="#fffdf8" opacity=".95" rx="30" transform="rotate(2 771 719)"/><rect width="150" height="150" x="580" y="654" fill="url(#sage)" opacity=".78" rx="24" transform="rotate(2 655 729)"/><rect width="170" height="20" x="768" y="665" fill="#173b2f" opacity=".28" rx="10" transform="rotate(2 853 675)"/><rect width="126" height="14" x="768" y="720" fill="#6b8f7a" opacity=".28" rx="7" transform="rotate(2 831 727)"/><rect width="184" height="14" x="768" y="762" fill="#6b8f7a" opacity=".2" rx="7" transform="rotate(2 860 769)"/></g><g opacity=".65"><path fill="#173b2f" d="M1222 719c58-90 120-131 184-123-82 76-122 142-121 205-21-29-42-56-63-82Z" opacity=".46"/><path fill="#6b8f7a" d="M1305 823c78-58 146-68 206-30-88 28-151 76-190 144-5-38-10-76-16-114Z" opacity=".42"/><path fill="#dde7d8" d="M1195 780c27-88 78-143 151-164-49 82-73 157-72 225-28-20-55-40-79-61Z" opacity=".7"/></g><g fill="none" stroke-linecap="round"><path stroke="#c9a35a" stroke-width="3" d="M117 1050C272 928 472 925 624 1041" opacity=".9"/><path stroke="#dde7d8" stroke-width="3" d="M940 1006c128-91 296-91 425 0" opacity=".82"/><path stroke="#102e24" stroke-width="2" d="M100 934h322" opacity=".28"/><path stroke="#fffdf8" stroke-width="2" d="M1145 889h284" opacity=".42"/></g><g fill="#173b2f" opacity=".42"><circle cx="186" cy="934" r="10"/><circle cx="421" cy="934" r="10"/><circle cx="1034" cy="1002" r="8"/><circle cx="1276" cy="1002" r="8"/></g></svg>