<svg xmlns="http://www.w3.org/2000/svg" width="1200" height="630" viewBox="0 0 1200 630" role="img" aria-label="Verdantia Practical AI Real Impact">
  <defs>
    <linearGradient id="bg" x1="0" x2="1" y1="0" y2="1">
      <stop offset="0" stop-color="#fffdf8"/>
      <stop offset=".62" stop-color="#f6f1e8"/>
      <stop offset="1" stop-color="#dde7d8"/>
    </linearGradient>
    <linearGradient id="green" x1="0" x2="1" y1="0" y2="1">
      <stop offset="0" stop-color="#173b2f"/>
      <stop offset="1" stop-color="#0e3d2f"/>
    </linearGradient>
    <filter id="shadow" x="-15%" y="-15%" width="130%" height="130%">
      <feDropShadow dx="0" dy="20" stdDeviation="24" flood-color="#102e24" flood-opacity=".18"/>
    </filter>
  </defs>
  <rect width="1200" height="630" fill="url(#bg)"/>
  <path d="M0 470C173 375 326 371 461 459c164 108 319 94 492-38 96-73 174-104 247-92v301H0Z" fill="#dde7d8" opacity=".78"/>
  <path d="M0 555c212-97 382-87 514 31 132 118 292 125 479 24 83-45 153-71 207-80v100H0Z" fill="#0e3d2f"/>
  <path d="M675 456C750 313 862 281 954 362c73 64 121 54 212-35" fill="none" stroke="#c9a35a" stroke-width="5" stroke-linecap="round"/>
  <path d="M621 474c124-103 372-102 498 0" fill="none" stroke="#fffdf8" stroke-width="3" stroke-linecap="round" opacity=".68"/>
  <g transform="translate(80 76)" filter="url(#shadow)">
    <rect width="1040" height="438" rx="34" fill="#fffdf8" opacity=".92"/>
    <g transform="translate(56 48)">
      <path d="M46 120C42 95 30 61 0 24c25 2 42 34 46 67 5-33 22-65 47-67-30 37-42 71-47 96Z" fill="#0e3d2f"/>
      <path d="M8 95c23-22 54-22 77 0" fill="none" stroke="#c9a35a" stroke-width="7" stroke-linecap="round"/>
    </g>
    <path d="M190 64v116" stroke="#173b2f" stroke-width="2" opacity=".28"/>
    <text x="230" y="108" fill="#0e3d2f" font-family="Georgia, 'Times New Roman', serif" font-size="64" font-weight="700" letter-spacing="5">VERDANTIA</text>
    <text x="233" y="156" fill="#6b8f7a" font-family="Montserrat, Arial, sans-serif" font-size="22" font-weight="700" letter-spacing="7">PRACTICAL AI &amp; DIGITAL ENABLEMENT</text>
    <text x="60" y="290" fill="#0e3d2f" font-family="Georgia, 'Times New Roman', serif" font-size="48" font-weight="700">Practical AI.</text>
    <text x="60" y="346" fill="#c9a35a" font-family="Georgia, 'Times New Roman', serif" font-size="48" font-weight="700">Real Impact.</text>
    <text x="60" y="403" fill="#202520" font-family="Montserrat, Arial, sans-serif" font-size="24" font-weight="500">AI consulting, training, and adoption support in Ireland.</text>
  </g>
</svg>
